# xmcd CD database file
#
# Track frame offsets:
#	150
#	15567
#	40514
#	59129
#	74680
#	93009
#	115436
#	137452
#	155865
#	172552
#	191331
#	212573
#	229901
#	255882
#	273364
#
# Disc length: 3967 seconds
#
# Revision: 0
# Processed by: cddbd v1.5.2PL0 Copyright (c) Steve Scherf et al.
# Submitted via: CDex 1.51
#
DISCID=c50f7d0f
DTITLE=The felice brothers - The felice brothers
DYEAR=2008
DGENRE=Country
TTITLE0=Little Ann
TTITLE1=Greatest show on earth
TTITLE2=Frankie's Gun
TTITLE3=Goddamn you, Jim
TTITLE4=Wonderful life
TTITLE5=Don't wake the scarecrow
TTITLE6=The this bread
TTITLE7=Saint Stephen's end
TTITLE8=Love me tenderly
TTITLE9=Ruby Mae
TTITLE10=Murder by mistletoe
TTITLE11=Whiskey in my Whiskey
TTITLE12=Helen fry
TTITLE13=Radio song
TTITLE14=Tip your way
EXTD=YEAR: 2008
EXTT0=
EXTT1=
EXTT2=
EXTT3=
EXTT4=
EXTT5=
EXTT6=
EXTT7=
EXTT8=
EXTT9=
EXTT10=
EXTT11=
EXTT12=
EXTT13=
EXTT14=
PLAYORDER=
